<?xml version="1.0" encoding="iso-8859-1"?>
<!-- Generator: Adobe Illustrator 19.0.0, SVG Export Plug-In . SVG Version: 6.00 Build 0)  -->
<svg version="1.1" id="Capa_1" xmlns="http://www.w3.org/2000/svg" xmlns:xlink="http://www.w3.org/1999/xlink" x="0px" y="0px"
	 viewBox="0 0 491.52 491.52" style="enable-background:new 0 0 491.52 491.52;" xml:space="preserve">
<circle style="fill:#334D5C;" cx="245.76" cy="245.76" r="245.76"/>
<path style="opacity:0.1;enable-background:new    ;" d="M383.232,108.288c-2.048-2.048-4.864-3.328-7.987-3.328h-258.97
	c-6.246,0-11.315,5.069-11.315,11.264v163.225c0,2.918,1.126,5.53,2.919,7.527l197.274,197.275
	C412.18,457.682,491.52,361.005,491.52,245.76c0-10.607-0.747-21.034-2.051-31.287L383.283,108.288H383.232z"/>
<path style="fill:#EBF0F3;" d="M375.27,104.96H116.25c-6.235,0-11.29,5.047-11.29,11.274v163.23c0,6.226,5.055,11.274,11.29,11.274
	h259.02c6.236,0,11.29-5.047,11.29-11.274v-163.23C386.56,110.007,381.506,104.96,375.27,104.96z"/>
<path style="fill:#FCD462;" d="M164.787,127.649h-37.1c-2.041,0-3.695,1.652-3.695,3.69v37.047c0,2.038,1.654,3.69,3.695,3.69h37.1
	c2.04,0,3.695-1.652,3.695-3.69v-37.047C168.482,129.301,166.827,127.649,164.787,127.649z"/>
<ellipse style="fill:#E56353;" cx="342.44" cy="143.41" rx="22.554" ry="22.523"/>
<ellipse style="fill:#27A2DB;" cx="313.04" cy="143.41" rx="22.554" ry="22.523"/>
<g>
	<rect x="124.01" y="197.67" style="fill:#64798A;" width="73.33" height="8.96"/>
	<rect x="124.01" y="256.61" style="fill:#64798A;" width="33" height="8.96"/>
	<rect x="183.52" y="256.67" style="fill:#64798A;" width="33" height="8.96"/>
	<rect x="243.05" y="256.72" style="fill:#64798A;" width="33" height="8.96"/>
	<rect x="302.59" y="256.72" style="fill:#64798A;" width="33" height="8.96"/>
	<rect x="124.01" y="229.83" style="fill:#64798A;" width="110.19" height="8.96"/>
</g>
<ellipse style="fill:#FCD462;" cx="318.82" cy="318.77" rx="67.753" ry="67.799"/>
<ellipse style="fill:#F6C358;" cx="318.82" cy="318.77" rx="56.42" ry="56.47"/>
<path style="fill:#DC8744;" d="M316.481,362.721v-7.742c-9.686-0.988-18.379-4.842-26.073-11.556l7.736-9.226
	c5.934,5.161,12.04,8.234,18.336,9.226v-20.575c-7.987-1.907-13.834-4.419-17.543-7.53s-5.563-7.724-5.563-13.839
	s2.13-11.116,6.408-15.009c4.278-3.888,9.841-6.007,16.698-6.361v-5.304h6.779v5.407c7.771,0.57,15.119,3.219,22.045,7.957
	l-6.891,9.757c-4.666-3.323-9.711-5.373-15.154-6.154v19.937h0.319c8.125,1.912,14.093,4.492,17.905,7.742
	c3.821,3.254,5.727,7.975,5.727,14.159c0,6.188-2.191,11.228-6.572,15.112c-4.381,3.892-10.169,6.011-17.379,6.365v7.634
	L316.481,362.721L316.481,362.721z M309.003,294.267c-1.803,1.588-2.7,3.569-2.7,5.938s0.707,4.242,2.122,5.619
	c1.406,1.381,4.097,2.706,8.056,3.979v-18.349C313.298,291.739,310.805,292.675,309.003,294.267z M331.315,340.769
	c1.975-1.623,2.967-3.672,2.967-6.149c0-2.473-0.776-4.436-2.329-5.886c-1.561-1.45-4.459-2.809-8.694-4.082v19.087
	C326.649,343.389,329.331,342.396,331.315,340.769z"/>
<g>
</g>
<g>
</g>
<g>
</g>
<g>
</g>
<g>
</g>
<g>
</g>
<g>
</g>
<g>
</g>
<g>
</g>
<g>
</g>
<g>
</g>
<g>
</g>
<g>
</g>
<g>
</g>
<g>
</g>
</svg>
