<svg height="512" viewBox="0 0 512 512" width="512" xmlns="http://www.w3.org/2000/svg"><g id="Flat"><rect fill="#2d7dbf" height="288" rx="40" width="416" x="72" y="64"/><path d="m72 120h416v64h-416z" fill="#34507b"/><rect fill="#348fd9" height="288" rx="40" width="416" x="24" y="160"/><path d="m440 213.32v194.68a40 40 0 0 1 -40 40h-336a40 40 0 0 1 -40-40v-24.87c150.52-31.9 298.54-85.64 416-169.81z" fill="#3086cd"/><rect fill="#ffb531" height="64" rx="8" width="64" x="72" y="208"/><path d="m72 232h24v16h-24z" fill="#f5980c"/><path d="m112 232h24v16h-24z" fill="#f5980c"/><path d="m368 352a31.916 31.916 0 0 0 -24 10.845 32 32 0 1 0 0 42.31 32 32 0 1 0 24-53.155z" fill="#f35244"/><g fill="#459de6"><path d="m384 216h16v32h-16z"/><path d="m352 216h16v32h-16z"/><path d="m320 216h16v32h-16z"/><path d="m288 216h16v32h-16z"/><path d="m64 312h16v16h-16z"/><path d="m96 312h16v16h-16z"/><path d="m144 312h16v16h-16z"/><path d="m176 312h16v16h-16z"/><path d="m224 312h16v16h-16z"/><path d="m256 312h16v16h-16z"/><path d="m304 312h16v16h-16z"/><path d="m336 312h16v16h-16z"/><path d="m168 368h16v16h-16z"/><path d="m136 368h16v16h-16z"/><path d="m200 368h16v16h-16z"/><path d="m232 368h16v16h-16z"/></g></g></svg>