<?xml version="1.0" encoding="iso-8859-1"?>
<!-- Generator: Adobe Illustrator 19.0.0, SVG Export Plug-In . SVG Version: 6.00 Build 0)  -->
<svg version="1.1" id="Capa_1" xmlns="http://www.w3.org/2000/svg" xmlns:xlink="http://www.w3.org/1999/xlink" x="0px" y="0px"
	 viewBox="0 0 512 512" style="enable-background:new 0 0 512 512;" xml:space="preserve">
<circle style="fill:#FAD307;" cx="256" cy="256" r="256"/>
<path style="fill:#4D5BA5;" d="M490.624,126.296v259.408c0,11.696-9.488,21.184-21.184,21.184H42.56
	c-11.696,0-21.184-9.488-21.184-21.184V126.296c0-11.696,9.488-21.184,21.184-21.184h426.88
	C481.136,105.112,490.624,114.6,490.624,126.296z"/>
<g style="opacity:0.1;">
	<path style="fill:#FDFEFF;" d="M208.088,186.94c-1.128,1.064-2.708,1.056-3.288,2.58c-0.344,0.904,0.216,2.132-0.02,3.076
		c-0.316,1.244-1.528,3.024-2.148,4.064c-2.756,4.636-7.548,3.236-10.076-1.052c-4.184-7.108,3.944-14.32,3.776-18.408
		c-0.096-2.404-2.232-4.004-2.7-6.232c-0.544-2.604,1.268-5.304,0.592-7.8c-0.888-3.292-2.624-1.836-4.856-2.668
		c-1.32-0.488-2.768-2.616-3.104-3.888c-0.744-2.8,1.044-3.9,3.32-4.332c2.168-0.412,3.836-1.556,5.7-2.736
		c1.348-0.852,1.292-1.756,2.196-2.732c1.164-1.256,7.496-3.588,10.06-3.612c2.064-0.02,5.092,3.188,6.756,2.248
		c2.248-1.272,1.072-5.576,4.804-5.976c1.588-0.168,3.604,0.6,5.304,0.632c1.476,0.028,3.452-0.172,4.664,0.844
		c1.872,1.572,0.256,5.22,1.848,6.344c1.108,0.784,5.816,0,7.268,0.052c0.912,2.34-0.616,5.232-1.724,7.196
		c-1.128,1.996-3.784,3.072-4.44,4.584c-0.724,1.672-0.316,4.016-0.612,5.824c-0.276,1.672-2.116,6.124-3.348,7.128
		c-0.952,0.78-1.916,0.188-2.752,1.48c-0.776,1.2-0.332,2.28-0.512,3.592C223.904,183.616,211.692,182.94,208.088,186.94z"/>
	<path style="fill:#FDFEFF;" d="M167.808,375.62c-4.672,0-5.248,0.572-7.764-2.676c-2.08-2.684-1.076-3.62-1.888-6.952
		c-0.788-3.224-2.612-4.772-2.004-8.752c0.392-2.568,1.084-3.8,0.828-6.552c-0.516-5.524-2.108-10.424-1.692-16.164
		c0.32-4.408,4.824-11.02,2.328-15.644c-4.328-8.016-20.856-5.076-17.38-24.968c0.544-3.108,3.908-5.648,4.1-8.58
		c0.244-3.656-2.324-3.324-4.916-5.156c-2.492-1.764-3.956-4.3-6.712-5.728c-5.124-2.648-8.908,0.98-19.708-8.3
		c-3.348-2.876-2.968-5.364-4.06-9.46c-1.168-4.392-5.024-12.344-7.876-15.752c-0.152,3.28,0.04,6.128,0.752,9.228
		c0.552,2.4,2.952,6.9,2.288,8.86c-4.392-2.116-4.024-7.436-5.424-11.396c-1.168-3.308-3.56-6.176-5.184-9.316
		c-1.444-2.796-3.9-6.812-3.78-10.176c0.132-3.712,3.648-5.448,5.036-8.6c0.632-1.436,1.44-4.732,1.248-6.284
		c-0.608-5.004-5.072-1.924-4.604-15.212c0.288-8.208-1.136-14.28-9.936-17.524c-4.432-1.636-9.292,0.264-13.036,3.536
		c-4,3.496-3.868,6.576-13.476,6.684c0.8-4.312,10.2-3.46,9.164-9.136c-5.936,0.3-7.788-9.38-4.244-12.688
		c2.316-2.16,6.364-1.4,6.92-4.892c0.256-1.604-1.884-3.744-1.628-6.24c2.084-0.4,7.344,0.468,8.648-1.528
		c2.04-3.132-2.728-5.436,2.3-7.332c2.24-0.848,6.456-1.004,8.912-1.284c2.404-0.276,5.368-0.264,7.768-0.004
		c4.5,0.488,6.316,2.276,9.052,5.42c1.588,1.824,3.084,5.34,5.024,6.86c3.964,3.108,10.912-0.612,15.248,1.912
		c3.116,1.812,2.628,5.272,4.992,7.584c2.056,2.012,4.876,1.28,7.7,2.06c-7.22-0.076-6.856-2.972-6.616-7.924
		c0.268-5.628-1.768-4.812-7.132-5.1c1.152-2.68,3.78-1.424,5.78-2.748c1.092-0.724,2.316-4.644,2.596-4.76
		c1.128-0.476,5.616,2.628,6.764,3.784c1.336,1.344,1.584,4.756,2.776,5.448c1.692,0.984,4.38-1.496,5.532-0.808
		c2.704,1.608,0.384,3.304,0.176,4.788c-0.424,3.004-1.02,3.188-2.136,5.224c-0.968,1.764-2.952,1.16-1.408,4.54
		c3.928,0.076,4.016,0.392,5.804-2.236c1.268-1.86-1.172-4.668,3.272-3.972c0.036,1.572,0.028,3.136,0.472,4.456
		c2.584-2.824-0.212-5.504,0.724-8.556c-2.084,3.368-5.396,1.088-3.572-2.084c1.272-2.212,4.384-1.22,6.536-1.352
		c1.808-0.108,7.044,0.384,4.44-2.976c-1.868-2.412-6.268,1.148-6.496-3.152c-4.48,1.64-8.344-0.476-13.524-0.148
		c-0.572-1.672,0.156-3.512,0.48-4.94c-1.956,0.016-3.856-0.832-5.26-2.08c1.052,0.092,1.972-0.4,2.908-0.464
		c0.004-0.264,0.016-0.524,0.028-0.788c1.736-0.736,4.308-1.544,6.24-0.608c2.632,1.276,2.204,4.176,4.08,5.964
		c0.396-3.048,0.164-9.216,4.676-8.344c4.896,0.948,0.48,5.848,0.88,9.096c2.168,1.296,3.86,0.484,6.2,0.712
		c2.376,0.232,3.444,1.208,5.828,1.504c-0.472,4.1,1.452,5.072,5.404,4.996c-2.356-0.44-4.456-2.028-3.548-4.58
		c2.036,0.408,3.628-0.74,3.136-2.692c0.96-0.076,1.948-0.836,2.808-0.976c-1.452-1.804-3.648-1.048-4.452-3.144
		c-0.82-2.136,1.068-4.396,2.424-5.78c3.228-3.292,6.584-3.08,10.744-3.736c3.964-0.628,7.676-1.708,11.824-1.668
		c4.564,0.044,5.832,2.684,10.112,3.76c-1.428,1.252-2.928,2.852-4.52,3.708c-1.108,0.596-2.432,0.648-3.452,1.248
		c-0.844,0.5-1.26,1.564-2.012,2.092c-1.524,1.068-3.54,1.196-5.336,1.204c-2.936,0.008-4.676,0.328-7.376,1.224
		c0.656,1.396,4.86,0.464,2.748,3.356c-0.628,0.86-2.992,1.988-3.996,2.648c-1.528,1.004-3.348,1.652-4.072,3.2
		c-0.668,1.44-0.86,2.128-1.708,3.396c-0.584,0.872-0.792,0.472-0.76,1.532c0.008,0.228,1.1,2.456,1.224,2.624
		c0.936,1.28,2.932,2.084,3.936,3.352c0.768,0.972,0.94,2.388,1.264,3.632c1.408,5.408-0.18,1.38,2.188,5.484
		c0.528,0.916,1.464,5.016,0.256,6.1c-1.148,1.036-5.04,0.22-5.408-1.26c-2.748,1.868,1.384,2.692,1.916,3.548
		c1.252,2.012-2.092,4.176-3.604,4.46c-3.54,0.672-5.416,0.52-6.18-7.576c-1.16,0.248-2.484,0.264-3.624,0.108
		c-0.096-0.352-0.092-0.988,0.012-1.332c0.856-0.228,1.692-0.58,2.532-0.796c0.444-0.112,3.104-0.252,3.384-0.456
		c0.272-0.196,1.604-2.968,1.688-3.532c0.66-4.396-4.752,2.076-5.616-1.136c-0.456-1.696,4.348-5.864-1.2-4.448
		c-3.288,0.84-3.78,3.612-3.72,6.588c-1.948,0.136-5.872-0.06-6.896,1.676c0.828,0.572,3.664,1.128,4.188,1.944
		c1.544,2.4-3.468,5.216-5.672,4.224c-2.284-1.028-0.608-3.684-4.172-3.284c-4.008,0.452-11.056,8.712-8.36,15.684
		c2.048,5.3,7.16,2.992,8.948,6.852c1.32,2.852,0.952,8.688,5.84,7.42c3.652-0.948,0.508-7.58,1.616-10.156
		c0.332-0.772,1.104-0.664,1.432-1.464c0.296-0.732-0.028-2.348-0.02-3.12c0.024-2.108,0.172-4.032,1.392-5.736
		c1.924-2.684,7.4-3.7,8.944,0.216c0.484,1.228-0.48,3.584,0.188,4.764c0.736,1.304,2.444,0.752,4.1,0.856
		c0.332-1.04,1.5-2.54,2.584-2.728c2.8-0.484,1.788,2.968,1.964,4.676c0.292,2.82,0.524,3.716,2.672,5.016
		c1.148,0.696,3.276,1.648,3.7,2.98c0.576,1.792-1.12,2.316-1.664,3.788c-0.988,2.676,0.716,3.072,2.208,4.416
		c1.288,1.156,1.984,2.264,1.184,4.348c-0.892,2.324-6.864,2.7-8.32,0.768c-1.216-1.624,0.132-4.884-2.076-6.22
		c-2.036-1.232-6.944,0.036-8.964,0.804c1.276,1.916,5.1,2.828,5.736,4.992c0.604,2.056-1.436,4.828-3.228,5.4
		c-3.24,1.032-4.184-1.844-7.048-1.668c-1.256,0.076-1.28,0.072-1.916,1.056c-0.764,1.18-0.824,2.92-1.684,4.228
		c-0.328,0.5-0.716,1.024-1.072,1.508c-1.28,1.732-2.28,3.796-3.864,5.208c-6.752,6.008-3.232,5.728-5.904,9.728
		c-0.58,0.864-1.956,1.628-2.656,2.68c-2.432,3.644,0.884,2.356-0.424,6.972c-3.572,0.708-3.288-3.496-4.484-5.536
		c-1.064-1.812-2.496-3.816-4.56-4.196c-2.708-0.496-6.132,0.092-8.796,0.232c-8.864,0.46-3.872,5.532-5.34,9.536
		c-0.732,1.996-1.92,2.848,0.092,4.532c2.484,2.08,10.832,4.18,10.22-0.86c4.724-2.048,1.2,4.908,1.216,5.824
		c0.04,2.712,5.724,3.248,6.624,5.724c1.044,2.88-0.328,4.86,3.356,6.08c3.836,1.272,5.504,0.344,8.192-2.572
		c4.852-1.308,9.82-1.248,14.324,0.94c0.732,0.356,1.664,0.956,2.64,1.14c0.728,0.136,1.448-0.228,2.132,0.176
		c0.696,0.408,0.248,0.916,0.844,1.372c1.264,0.968,5.872,1.832,4.412,4.456c2.684,2.616,5.152-0.392,6.272,3.968
		c0.332,1.284,0.788,2.44,0.484,3.948c-0.244,1.22-0.956,2.208-0.772,3.572c3.26,1.044,6.98,0.588,10.368,0.912
		c1.356,0.128,3.46-0.136,4.676,0.56c1.544,0.884,1.396,2.228,1.66,3.964c2,13.252-3.844,17.792-5.36,22.448
		c-1.208,0.096-2.772,1.836-3.936,2.536c-1.392,0.84-1.976,0.46-3.28,0.956c-1.764,0.672-1.692,2.452-1.86,4.14
		c-0.816,8.188-5.672,7.856-8.428,11.856c-4.612,6.688-10.532,10.408-8.8,18.308c0.516,2.368-1.26,3.688-1.544,6.108
		c-0.184,1.576-0.216,3.824,0.188,5.304C165.788,374.66,165.528,374.988,167.808,375.62z"/>
	<path style="fill:#FDFEFF;" d="M313.524,278.852c0.508-0.132,1.384-0.012,1.912,0.044c2.612,8.244-11.524,12.348-14.412,16.352
		c-1.928,2.672,1.12,6.152,1.508,8.992c1.44,10.488-5.608,10.916-7.648,14.916c-0.708,1.392-0.164,2.648-0.64,3.928
		c-0.768,2.056-2.516,3.516-3.548,5.464c-1,1.892-1.52,4.048-2.404,5.912c-3.332,7.024-11.436,6.196-16.92,2.188
		c-2.988-2.188-4.308-7.112-5.988-10.544c-2.856-5.844-0.916-16.856-0.556-20.856c0.388-4.312-1.436-5.82-2.692-9.464
		c-1.364-3.952,1.056-6.82-4.256-8.012c-0.844-0.188-2.864-0.076-3.524-0.588c-1.4-1.088-0.624-3.128-2.524-4.132
		c-2.784-1.472-7.876,1.24-10.74,1.44c-16.78,1.16-21.904-38.736,8.36-44.968c4.944-1.02,10.44,0.648,15.34,1.044
		c0.064,1.356-0.584,4.832,0.032,6.02c0.86,1.652,2.62,1.092,4.696,1.092c3.368-0.004,6.46-0.604,9.756-0.596
		c3.34,0.008,9.064,0.988,12.02-0.532c8.38-4.3-10.024-7.416-12.6-7.752c-2.368-0.312-5.1,0.832-6.492-1.808
		c-0.92-1.748,0.392-2.776-1.448-4.236c-2.556-2.036-8.896-2.844-12.036-2.888c-10.136-0.148-7.216,4.336-12.564,7.232
		c-3.784,2.048-9.324,4.196-11.572-0.62c-3.112-6.668,3.552-8.772,8.604-10.224c1.548-0.444,4.416-0.932,4.164-3.392
		c-0.1-1-1.032-1.096-1.304-1.736c-0.252-0.596-0.952-3.228-1.324-3.632c-1.476-1.616-4.852,0.596-6.556-0.64
		c-5.548-4.02,6.464-24.216,8.696-12.568c0.64,3.352,0.112,5.084,6.068,5.692c8.54,0.872,1.84-5.692,1.48-9.548
		c-0.32-3.4,1.448-4.808,3.444-7.352c4.044-5.156,3.668-10.548,13.436-15.032c15.164-6.964,13.46,3.704,25.072,3.724
		c8.992,0.016,11.048-5.496,15.048-6.536c2.084-0.54,4.132,0.952,5.348-1.028c1.232-2.008-1.164-5.06-0.888-7.156
		c1.208-0.248,3.248-1.172,4.464-0.864c1.388,0.352,1.056,1.604,2.208,2.136c3.504,1.612,8.104-2.692,10.152-4.996
		c2.12-2.38,2.572-3.896,3.144-6.744c0.38-1.884,1.016-3.956,2.292-5.408c1.9-2.164,6.24-5.64,8.996-3.844
		c2.484,1.62,1.372,3.192,4.836,3.852c2.812,0.536,4.284-0.592,4.548,2.476c0.236,2.724-2.168,4.744-3.22,7
		c2.104,0.224,2.968-1.344,4.456-2.336c1.596-1.064,2.024-1.184,4.272-1.196c2.768-0.012,8.024-0.44,8.584-4.044
		c5.048-1.192,5.76,3.836,9.52,5.2c2.684,0.976,8.78-1.356,8.504-4.42c-0.196-2.152-0.376-3.544-0.732-5.668
		c5.152-2.224,8.688,0.452,13.2,1.528c1.648,0.392,3.392,0.328,5.092,0.556c4.152,0.56,2.076-0.188,4.988-2.424
		c1.24-0.952,3.076-1.164,4.7-0.82c3.328,0.704,1.088,2.084,3.564,3.78c1.592,1.088,4.964-0.364,6.24-1
		c2.504-1.24,2.604-1.924,2.364-5.184c4.068-1.104,11.304-0.96,15.732-0.272c2.724,0.424,12.46,3.284,13.2,5.912
		c0.364,1.292-0.856,3.308-1.616,4.256c-2,2.508-3.096,1.088-5.868,1.96c-6.212,1.956-3.028,7.044,2.336,6.924
		c1.072,2.86-0.668,4.884-2.624,7.016c-2.332,2.54-4.48,2.376-7.296,3.904c-1.956,1.064-4.424,4.024-3.424,6.864
		c1.412,4,4.956-0.096,5.068,13.424c0.028,3.292,1.32,7.872-2.464,8.84c-9.572,2.452-3.66-23.456-10.548-27.064
		c-5.388-2.82-5.94,5.012-4.604,8.016c-1.884,0.884-4.084,0.408-6.148,0.624c-2.86,0.296-4.184,1.576-6.688,3.112
		c-1.348,0.832-5.272,2.156-5.656,3.916c-0.652,2.996,3.872,2.72,5.748,3.58c5.348,2.448,5.512,4.436,6.044,16.892
		c0.54,0.108,1.464,0.264,2.048,0.112c1.144,3.212,0.108,8.352-2.948,10.18c-2.712,1.624-4.896,2.58-5.524,6.032
		c-0.588,3.22,2.136,3.956,3.412,6.468c1.708,3.356-0.576,7.608-4.468,4.248c-1.772-1.528-0.912-4.224-2.532-5.648
		c-0.888-0.78-2.936-1.612-4.072-2.376c-3.56-2.392-5.792,0.316-5.592,4.268c0.12,2.408,0.892,3.388,2.608,5.1
		c1.28,1.276,3.388,2.568,3.908,4.436c1.56,5.592-2.612,15.064-10.248,16.616c-3.608,0.736-7.58,3.016-6.764,7.048
		c0.408,2.028,0.88,4.708,1.652,6.596c0.712,1.752,2.788,2.94,0.34,4.28c-3.604,1.976-10.22-2.592-11.232-5.444
		c-0.148-0.412,0.412-0.984,0.216-1.472c-0.208-0.52-1.06-0.548-1.352-1c-3.044-4.704-1.192-2.108-5.192-5.324
		c-1.732-1.392-2.436-2.58-3.568-4.216c-1.296-1.868-2.012-1.968-4.196-0.612c-7.552,4.692-12.092,7.772-10.908,13.96
		c0.224,1.164,0.228,2.376,0.748,3.46c0.376,0.784,2.028,1.896,2.156,2.712c0.384,2.42-3.944,2.06-5.604,1.46
		c-2.54-0.92-3.528-3.128-4.328-5.496c-0.756-2.24-2.292-3.916-2.928-6.092c-0.632-2.164-0.004-3.864-1.48-5.832
		c-1.904-2.54-3.824-4.676-6.728-5.908c-1.948-0.828-3.928-2.404-5.816-2.816c-4.904-1.076-10.076,1.912-13.756-2.12
		c-1.628-1.784-3.096-3.212-5.2-4.048c0.016,1.504,2.46,6.204,3.648,7.44c2.116,2.208,5.04,1.464,7.84,1.62
		c1.864,0.104,2.16-0.484,2.932,1.324c0.448,1.056,0.12,3.116-0.556,4.04c-1.176,1.608-5.156,2.772-7.016,3.792
		c-2.284,1.252-4.78,2.184-7.108,3.272c-5.052,2.364-5.868,1.016-7.268-4.328c-1.44-5.488-7.404-12.98-13.016-14.792
		c-1.808,7.228,5.064,13.768,10.08,17.64c2.12,1.636,4.004,3.456,5.764,5.432C309.108,278.668,310.82,277.704,313.524,278.852z"/>
	<path style="fill:#FDFEFF;" d="M391.724,334.156c-2.628,1.276-5.48,2.196-8.388,2.788c-3.064,0.624-5.536,1.324-7.228-1.504
		c-1.764-2.952-3.34-6.048-1.056-8.712c0.832-0.972,1.392-0.924,1.92-2.244c0.568-1.416,0.816-3.404,0.968-4.94
		c0.384-3.924,2.82-5.476,6.196-6.868c2.984-1.232,6.016-2.476,8.676-4.756c2.392-2.048,3.64-4.336,6.648-5.328
		c1.76-0.58,3.292-0.992,5.26-0.952c2.052,0.04,3.24,0.088,4.832,1.512c1.5,1.34,1.592,4.156,3.192,5.032
		c3.432,1.88,5.648-4.244,5.888-6.516c4.028-0.584,5.308,3.504,6.524,6.424c1.432,3.448,4.136,6.664,4.584,10.372
		c0.3,2.5,0.028,4.932,0.516,7.412c0.588,2.988,0.164,4.292-0.888,7.12c-0.788,2.116-0.716,5.152-2.036,7.008
		c-0.612,0.86-1.876,1.28-2.608,2.132c-0.996,1.16-1.156,2.388-2.42,3.348c-3.388,2.564-6.98,1.696-10.428-0.04
		c-4-2.016-5.756-2.756-7.16-7.452C402.812,331.62,396.06,331.728,391.724,334.156z"/>
</g>
<rect x="340.72" y="130.76" style="fill:#D2D2D4;" width="115.836" height="35.476"/>
<circle style="fill:#70B1E1;" cx="383.04" cy="221.48" r="30.884"/>
<circle style="fill:#F1592F;" cx="425.68" cy="221.48" r="30.884"/>
<path style="fill:#F5EA07;" d="M142.768,214.62v40.448c0,5.94-4.812,10.764-10.764,10.764H86.86
	c-5.948,0-10.776-4.824-10.776-10.764V214.62c0-5.948,4.824-10.764,10.776-10.764h45.144
	C137.956,203.856,142.768,208.668,142.768,214.62z"/>
<polygon style="fill:#E8BB20;" points="119.14,226.016 119.14,234.012 142.768,234.012 142.768,236.156 119.14,236.156 
	119.14,243.212 124.008,247.96 142.768,247.96 142.768,250.104 123.14,250.104 117.64,244.744 109.524,244.744 109.524,251.704 
	124.492,265.832 121.372,265.832 108.516,253.696 96.98,265.832 94.02,265.832 107.38,251.776 107.38,244.744 100.552,244.744 
	95.052,250.104 76.088,250.104 76.088,247.96 94.184,247.96 99.048,243.212 99.048,236.156 76.088,236.156 76.088,234.012 
	99.048,234.012 99.048,226.016 94.108,222.22 76.088,222.22 76.088,220.076 94.836,220.076 100.488,224.408 107.4,224.408 
	107.4,218.104 94.192,203.856 97.108,203.856 108.504,216.152 121.004,203.856 124.06,203.856 109.544,218.136 109.544,226.552 
	101.192,226.552 101.192,242.6 116.996,242.6 116.996,224.956 123.352,220.076 142.768,220.076 142.768,222.22 124.084,222.22 "/>
<g>
	<path style="fill:#FDFEFF;" d="M73.692,147.86c1.856,1.58,2.784,4.004,2.784,7.276s-0.952,5.668-2.86,7.18
		c-1.908,1.516-4.82,2.272-8.736,2.272h-3.524v7.392h-5.912v-26.492h9.36C68.872,145.492,71.836,146.28,73.692,147.86z
		 M69.352,158.28c0.708-0.796,1.06-1.956,1.06-3.488c0-1.528-0.46-2.616-1.384-3.26s-2.356-0.968-4.3-0.968h-3.372v8.908h3.98
		C67.304,159.476,68.644,159.076,69.352,158.28z"/>
	<path style="fill:#FDFEFF;" d="M81.1,171.984v-26.492h5.912v21.224h11.292v5.268H81.1z"/>
	<path style="fill:#FDFEFF;" d="M121.5,171.984l-2.464-5.724h-11.104l-2.464,5.724h-6.292l11.444-26.492h5.724l11.444,26.492H121.5z
		 M113.504,153.376l-3.336,7.692h6.632L113.504,153.376z"/>
	<path style="fill:#FDFEFF;" d="M140.144,150.608v21.376h-5.912v-21.376h-7.504v-5.116h20.92v5.116H140.144z"/>
	<path style="fill:#FDFEFF;" d="M151.968,145.492h5.912v26.492h-5.912V145.492z"/>
	<path style="fill:#FDFEFF;" d="M182.932,145.492h5.912v26.492h-5.912l-12.62-16.6v16.6H164.4v-26.492h5.532l13,17.056
		L182.932,145.492L182.932,145.492z"/>
	<path style="fill:#FDFEFF;" d="M202.372,165.14c0.984,1.224,2.312,1.836,3.98,1.836s2.988-0.612,3.96-1.836s1.46-2.9,1.46-5.02
		v-14.628h5.912v14.816c0,3.84-1.06,6.792-3.184,8.848c-2.124,2.06-4.84,3.088-8.148,3.088c-3.312,0-6.032-1.036-8.168-3.108
		s-3.204-5.016-3.204-8.832v-14.816h5.912v14.628C200.896,162.244,201.388,163.916,202.372,165.14z"/>
	<path style="fill:#FDFEFF;" d="M247.548,155.308l-7.164,14.476h-3.524l-7.124-14.476v16.676h-5.912v-26.492h7.996l6.82,14.552
		l6.86-14.552h7.96v26.492h-5.912L247.548,155.308L247.548,155.308z"/>
	<path style="fill:#FDFEFF;" d="M65.276,302.596c-3.288,0-5.748-1.116-7.384-3.352c-1.632-2.232-2.448-5.216-2.448-8.948
		s0.816-6.712,2.448-8.948c1.632-2.236,4.096-3.352,7.384-3.352s5.748,1.116,7.384,3.352c1.632,2.236,2.448,5.216,2.448,8.948
		s-0.816,6.712-2.448,8.948C71.024,301.48,68.564,302.596,65.276,302.596z M61.772,284.564c-0.748,1.452-1.124,3.368-1.124,5.748
		c0,2.38,0.376,4.3,1.124,5.748c0.748,1.452,1.916,2.176,3.504,2.176c1.588,0,2.756-0.724,3.504-2.176s1.124-3.368,1.124-5.748
		c0-2.38-0.376-4.3-1.124-5.748c-0.748-1.452-1.916-2.176-3.504-2.176C63.688,282.388,62.52,283.112,61.772,284.564z"/>
	<path style="fill:#FDFEFF;" d="M78.068,278.54h9.628v23.784h-5.104v-19.256h-4.524C78.068,283.068,78.068,278.54,78.068,278.54z"/>
	<path style="fill:#FDFEFF;" d="M102.684,287.812c0.6-0.852,0.9-1.672,0.9-2.468s-0.26-1.456-0.784-1.992
		c-0.52-0.532-1.192-0.8-2.008-0.8c-1.496,0-2.916,1.068-4.252,3.2l-4.252-2.516c1.112-1.724,2.332-3.028,3.656-3.912
		c1.328-0.884,3.016-1.328,5.068-1.328s3.856,0.652,5.408,1.956c1.552,1.304,2.332,3.08,2.332,5.324c0,1.224-0.312,2.4-0.936,3.52
		c-0.624,1.124-1.776,2.556-3.452,4.304l-4.284,4.46h9.392v4.764H92.7v-3.948l6.976-7.144
		C101.08,289.804,102.084,288.664,102.684,287.812z"/>
	<path style="fill:#FDFEFF;" d="M113.86,283.068v-4.524h14.56v3.676l-4.864,5.544c1.904,0.32,3.38,1.116,4.424,2.4
		c1.044,1.28,1.564,2.76,1.564,4.44c0,2.496-0.844,4.452-2.536,5.868c-1.688,1.416-3.852,2.128-6.48,2.128
		c-2.632,0-5.296-0.928-7.996-2.788l2.176-4.22c2.244,1.588,4.252,2.38,6.024,2.38c1.068,0,1.944-0.26,2.636-0.784
		c0.692-0.52,1.04-1.276,1.04-2.264s-0.396-1.768-1.192-2.348s-1.892-0.868-3.3-0.868c-0.748,0-1.804,0.216-3.164,0.648v-3.912
		l4.56-5.376L113.86,283.068L113.86,283.068z"/>
	<path style="fill:#FDFEFF;" d="M170.808,292.048v-4.152h5.104v4.152h2.688v4.592h-2.688v5.68h-5.104v-5.68h-9.56v-4.048
		l8.472-14.052h5.784l-8.064,13.508H170.808z"/>
	<path style="fill:#FDFEFF;" d="M197.244,278.54v4.592h-9.392v3.98c0.704-0.204,1.508-0.308,2.416-0.308
		c2.292,0,4.264,0.692,5.92,2.076c1.656,1.384,2.484,3.248,2.484,5.596c0,2.348-0.856,4.288-2.568,5.816
		c-1.712,1.532-3.828,2.296-6.344,2.296c-3.22,0-5.908-1.192-8.064-3.572l2.788-3.88c0.204,0.204,0.476,0.456,0.816,0.748
		c0.34,0.296,0.964,0.688,1.872,1.172c0.908,0.488,1.816,0.732,2.72,0.732c0.908,0,1.712-0.272,2.416-0.816s1.056-1.348,1.056-2.416
		s-0.38-1.888-1.14-2.468s-1.74-0.868-2.944-0.868s-2.596,0.432-4.184,1.292l-2.212-2.38v-11.6h14.36V278.54z"/>
	<path style="fill:#FDFEFF;" d="M212.352,282.556c-1.476,0-2.616,0.492-3.42,1.48s-1.3,2.332-1.48,4.032
		c1.476-0.952,3.04-1.428,4.696-1.428c2.224,0,4.076,0.724,5.564,2.176c1.484,1.452,2.228,3.384,2.228,5.8s-0.8,4.348-2.4,5.8
		c-1.6,1.452-3.612,2.176-6.04,2.176c-1.68,0-3.136-0.324-4.372-0.968c-1.236-0.648-2.196-1.548-2.876-2.704
		c-1.36-2.244-2.04-5.06-2.04-8.436c0-2.176,0.268-4.088,0.8-5.732c0.532-1.644,1.264-2.944,2.196-3.896
		c1.816-1.904,4.06-2.856,6.736-2.856c1.112,0,2.172,0.164,3.18,0.492s1.788,0.664,2.332,1.004s1.144,0.772,1.804,1.292
		l-2.516,3.744c-0.136-0.136-0.336-0.316-0.596-0.544s-0.776-0.52-1.548-0.884C213.824,282.74,213.076,282.556,212.352,282.556z
		 M211.652,291.132c-1.056,0-1.94,0.312-2.652,0.936c-0.716,0.624-1.072,1.436-1.072,2.432s0.34,1.856,1.02,2.568
		c0.68,0.716,1.532,1.072,2.552,1.072s1.872-0.316,2.552-0.952s1.02-1.456,1.02-2.468s-0.308-1.86-0.92-2.552
		C213.544,291.476,212.708,291.132,211.652,291.132z"/>
	<path style="fill:#FDFEFF;" d="M223.34,286.164v-7.62h17.18v4.016l-9.628,19.768h-5.784l9.188-19.224h-5.988v3.064h-4.968V286.164z
		"/>
	<path style="fill:#FDFEFF;" d="M274.676,279.868c1.576-1.248,3.544-1.872,5.904-1.872s4.32,0.624,5.884,1.872
		c1.564,1.248,2.348,2.784,2.348,4.612c0,1.824-0.704,3.396-2.108,4.712c1.972,1.52,2.96,3.516,2.96,5.988
		c0,2.088-0.84,3.844-2.516,5.272c-1.68,1.428-3.868,2.144-6.568,2.144c-2.7,0-4.888-0.716-6.568-2.144s-2.516-3.188-2.516-5.272
		c0-2.472,0.988-4.468,2.96-5.988c-1.428-1.34-2.144-2.916-2.144-4.728C272.312,282.648,273.1,281.116,274.676,279.868z
		 M277.992,297.372c0.792,0.532,1.656,0.8,2.584,0.8s1.792-0.264,2.584-0.8c0.792-0.532,1.192-1.308,1.192-2.332
		c0-1.02-0.388-1.804-1.156-2.348c-0.772-0.544-1.644-0.816-2.62-0.816c-0.976,0-1.848,0.272-2.62,0.816s-1.156,1.328-1.156,2.348
		C276.804,296.064,277.2,296.84,277.992,297.372z M278.316,286.98c0.648,0.544,1.4,0.816,2.264,0.816
		c0.86,0,1.616-0.272,2.264-0.816s0.968-1.22,0.968-2.024s-0.316-1.48-0.952-2.024c-0.636-0.544-1.396-0.816-2.28-0.816
		s-1.644,0.272-2.28,0.816s-0.952,1.22-0.952,2.024C277.348,285.76,277.672,286.436,278.316,286.98z"/>
	<path style="fill:#FDFEFF;" d="M300.856,298.036c1.476,0,2.612-0.492,3.42-1.48c0.804-0.988,1.296-2.332,1.48-4.032
		c-1.452,0.976-3.016,1.464-4.696,1.464c-2.224,0-4.076-0.732-5.564-2.196c-1.484-1.464-2.228-3.396-2.228-5.8s0.8-4.336,2.4-5.8
		s3.612-2.196,6.04-2.196c1.68,0,3.136,0.324,4.372,0.968c1.236,0.648,2.204,1.548,2.908,2.704c1.34,2.244,2.008,5.06,2.008,8.436
		c0,2.176-0.268,4.088-0.8,5.732c-0.532,1.644-1.252,2.944-2.16,3.896c-1.86,1.904-4.116,2.856-6.772,2.856
		c-1.112,0-2.176-0.164-3.2-0.492c-1.02-0.328-1.792-0.656-2.312-0.988c-0.524-0.328-1.124-0.752-1.804-1.276l2.652-3.744
		c0.16,0.136,0.368,0.312,0.628,0.528c0.26,0.216,0.764,0.504,1.516,0.868C299.496,297.856,300.2,298.036,300.856,298.036z
		 M301.588,289.464c1.056,0,1.932-0.308,2.636-0.92s1.056-1.416,1.056-2.416c0-0.996-0.34-1.86-1.02-2.584
		c-0.68-0.724-1.532-1.088-2.552-1.088s-1.856,0.324-2.5,0.968c-0.648,0.648-0.972,1.468-0.972,2.468s0.296,1.844,0.884,2.536
		C299.712,289.12,300.532,289.464,301.588,289.464z"/>
	<path style="fill:#FDFEFF;" d="M324.64,302.596c-3.288,0-5.748-1.116-7.384-3.352c-1.632-2.232-2.448-5.216-2.448-8.948
		s0.816-6.712,2.448-8.948s4.096-3.352,7.384-3.352s5.748,1.116,7.384,3.352c1.632,2.236,2.448,5.216,2.448,8.948
		s-0.816,6.712-2.448,8.948C330.388,301.48,327.928,302.596,324.64,302.596z M321.136,284.564c-0.748,1.452-1.124,3.368-1.124,5.748
		c0,2.38,0.376,4.3,1.124,5.748c0.748,1.452,1.916,2.176,3.504,2.176s2.756-0.724,3.504-2.176s1.124-3.368,1.124-5.748
		c0-2.38-0.376-4.3-1.124-5.748c-0.748-1.452-1.916-2.176-3.504-2.176C323.052,282.388,321.884,283.112,321.136,284.564z"/>
	<path style="fill:#FDFEFF;" d="M337.432,278.54h9.628v23.784h-5.104v-19.256h-4.524V278.54z"/>
	<path style="fill:#FDFEFF;" d="M389.176,287.812c0.6-0.852,0.9-1.672,0.9-2.468s-0.26-1.456-0.784-1.992
		c-0.52-0.532-1.192-0.8-2.008-0.8c-1.496,0-2.916,1.068-4.252,3.2l-4.252-2.516c1.112-1.724,2.332-3.028,3.656-3.912
		c1.328-0.884,3.016-1.328,5.068-1.328s3.856,0.652,5.408,1.956s2.332,3.08,2.332,5.324c0,1.224-0.312,2.4-0.936,3.52
		c-0.624,1.124-1.776,2.556-3.452,4.304l-4.288,4.456h9.392v4.764h-16.772v-3.948l6.976-7.144
		C387.572,289.804,388.576,288.664,389.176,287.812z"/>
	<path style="fill:#FDFEFF;" d="M400.352,283.068v-4.524h14.56v3.676l-4.864,5.544c1.904,0.32,3.38,1.116,4.424,2.4
		c1.044,1.28,1.564,2.76,1.564,4.44c0,2.496-0.844,4.452-2.536,5.868c-1.688,1.416-3.852,2.128-6.48,2.128
		c-2.632,0-5.296-0.928-7.996-2.788l2.176-4.22c2.244,1.588,4.252,2.38,6.024,2.38c1.068,0,1.944-0.26,2.636-0.784
		c0.692-0.52,1.04-1.276,1.04-2.264s-0.396-1.768-1.192-2.348s-1.892-0.868-3.3-0.868c-0.748,0-1.804,0.216-3.164,0.648v-3.912
		l4.56-5.376L400.352,283.068L400.352,283.068z"/>
	<path style="fill:#FDFEFF;" d="M428.692,292.048v-4.152h5.104v4.152h2.688v4.592h-2.688v5.68h-5.104v-5.68h-9.56v-4.048
		l8.472-14.052h5.784l-8.064,13.508H428.692z"/>
	<path style="fill:#FDFEFF;" d="M455.128,278.54v4.592h-9.392v3.98c0.704-0.204,1.508-0.308,2.416-0.308
		c2.292,0,4.264,0.692,5.92,2.076s2.484,3.248,2.484,5.596c0,2.348-0.856,4.288-2.568,5.816c-1.712,1.532-3.828,2.296-6.344,2.296
		c-3.22,0-5.908-1.192-8.064-3.572l2.788-3.88c0.204,0.204,0.476,0.456,0.816,0.748c0.34,0.296,0.964,0.688,1.872,1.172
		c0.908,0.488,1.816,0.732,2.72,0.732s1.712-0.272,2.416-0.816c0.704-0.544,1.056-1.348,1.056-2.416s-0.38-1.888-1.14-2.468
		s-1.74-0.868-2.944-0.868s-2.596,0.432-4.184,1.292l-2.212-2.38v-11.6h14.36V278.54z"/>
	<path style="fill:#FDFEFF;" d="M55.444,365.116V352.24h2.872v10.316h5.492v2.56H55.444z"/>
	<path style="fill:#FDFEFF;" d="M75.192,352.24v2.56H68.78v2.652h5.768v2.452H68.78v2.672h6.616v2.544h-9.488v-12.88H75.192z"/>
	<path style="fill:#FDFEFF;" d="M87.24,352.24v2.56h-6.412v2.652h5.768v2.452h-5.768v2.672h6.616v2.544h-9.488v-12.88H87.24z"/>
	<path style="fill:#FDFEFF;" d="M111.264,357.012l-3.484,7.036h-1.712l-3.464-7.036v8.108h-2.872v-12.88h3.888l3.316,7.076
		l3.336-7.076h3.868v12.876h-2.876V357.012z"/>
	<path style="fill:#FDFEFF;" d="M117.224,364.796c-0.312-0.312-0.468-0.696-0.468-1.152c0-0.452,0.156-0.836,0.468-1.152
		c0.312-0.312,0.696-0.468,1.152-0.468s0.84,0.156,1.152,0.468c0.312,0.312,0.472,0.696,0.472,1.152s-0.156,0.84-0.472,1.152
		c-0.312,0.312-0.696,0.468-1.152,0.468S117.536,365.108,117.224,364.796z"/>
	<path style="fill:#FDFEFF;" d="M147.98,362.576c1.412,0,2.568-0.56,3.464-1.676l1.844,1.896c-1.464,1.648-3.184,2.468-5.168,2.468
		s-3.616-0.628-4.9-1.88s-1.924-2.832-1.924-4.744c0-1.908,0.656-3.504,1.96-4.78c1.308-1.276,2.908-1.916,4.8-1.916
		c2.112,0,3.88,0.804,5.308,2.412l-1.788,2.028c-0.908-1.132-2.04-1.696-3.392-1.696c-1.08,0-2.004,0.352-2.772,1.06
		s-1.152,1.66-1.152,2.856c0,1.196,0.36,2.16,1.088,2.884C146.072,362.212,146.948,362.576,147.98,362.576z"/>
	<path style="fill:#FDFEFF;" d="M164.636,365.116l-1.196-2.78h-5.4l-1.196,2.78h-3.06l5.564-12.876h2.784l5.564,12.876H164.636z
		 M160.748,356.072l-1.62,3.74h3.224L160.748,356.072z"/>
	<path style="fill:#FDFEFF;" d="M179.632,356.512c0,2.064-0.816,3.396-2.452,3.996l3.26,4.604h-3.536l-2.856-4.108h-1.988v4.108
		h-2.872V352.24h4.884c2,0,3.428,0.336,4.284,1.012C179.204,353.928,179.632,355.016,179.632,356.512z M176.168,358.044
		c0.356-0.32,0.536-0.828,0.536-1.52s-0.184-1.168-0.552-1.428c-0.368-0.256-1.012-0.388-1.936-0.388h-2.156v3.812h2.1
		C175.144,358.52,175.812,358.364,176.168,358.044z"/>
	<path style="fill:#FDFEFF;" d="M192.416,353.924c1.228,1.124,1.844,2.688,1.844,4.688s-0.6,3.588-1.796,4.752
		s-3.024,1.752-5.48,1.752h-4.404V352.24h4.552C189.428,352.24,191.188,352.8,192.416,353.924z M190.308,361.58
		c0.704-0.664,1.06-1.628,1.06-2.892s-0.352-2.24-1.06-2.92c-0.708-0.68-1.792-1.024-3.252-1.024h-1.604v7.828h1.824
		C188.592,362.576,189.6,362.244,190.308,361.58z"/>
	<path style="fill:#FDFEFF;" d="M204.744,352.24h2.872v12.876h-2.872v-5.068h-5.124v5.068h-2.872V352.24h2.872v5.38h5.124V352.24z"
		/>
	<path style="fill:#FDFEFF;" d="M221.62,363.34c-1.304,1.272-2.904,1.908-4.808,1.908c-1.904,0-3.508-0.636-4.808-1.908
		s-1.952-2.852-1.952-4.744s0.652-3.472,1.952-4.744s2.904-1.908,4.808-1.908c1.904,0,3.508,0.636,4.808,1.908
		s1.952,2.852,1.952,4.744S222.92,362.068,221.62,363.34z M220.644,358.604c0-1.148-0.368-2.128-1.104-2.94
		c-0.736-0.812-1.644-1.216-2.716-1.216c-1.076,0-1.98,0.404-2.716,1.216c-0.736,0.812-1.104,1.792-1.104,2.94
		s0.368,2.124,1.104,2.928c0.736,0.804,1.644,1.208,2.716,1.208c1.076,0,1.98-0.404,2.716-1.208S220.644,359.752,220.644,358.604z"
		/>
	<path style="fill:#FDFEFF;" d="M226.004,365.116V352.24h2.872v10.316h5.492v2.56H226.004z"/>
	<path style="fill:#FDFEFF;" d="M246.304,353.924c1.228,1.124,1.844,2.688,1.844,4.688s-0.6,3.588-1.796,4.752
		c-1.196,1.168-3.024,1.752-5.48,1.752h-4.404V352.24h4.552C243.316,352.24,245.076,352.8,246.304,353.924z M244.196,361.58
		c0.704-0.664,1.06-1.628,1.06-2.892s-0.352-2.24-1.06-2.92c-0.708-0.68-1.792-1.024-3.252-1.024h-1.604v7.828h1.824
		C242.48,362.576,243.488,362.244,244.196,361.58z"/>
	<path style="fill:#FDFEFF;" d="M259.92,352.24v2.56h-6.412v2.652h5.768v2.452h-5.768v2.672h6.616v2.544h-9.488v-12.88H259.92z"/>
	<path style="fill:#FDFEFF;" d="M273.128,356.512c0,2.064-0.816,3.396-2.452,3.996l3.26,4.604H270.4l-2.856-4.108h-1.988v4.108
		h-2.872V352.24h4.884c2,0,3.428,0.336,4.284,1.012C272.704,353.928,273.128,355.016,273.128,356.512z M269.664,358.044
		c0.356-0.32,0.536-0.828,0.536-1.52s-0.184-1.168-0.552-1.428c-0.368-0.256-1.012-0.388-1.936-0.388h-2.156v3.812h2.1
		C268.64,358.52,269.308,358.364,269.664,358.044z"/>
</g>
<path style="fill:#70B1E1;" d="M422.196,316.624c-18.968,0-34.352,15.376-34.352,34.352c0,18.976,15.384,34.364,34.352,34.364
	c18.976,0,34.364-15.384,34.364-34.364C456.556,332,441.172,316.624,422.196,316.624z M422.196,379.656
	c-15.828,0-28.672-12.84-28.672-28.68c0-15.828,12.84-28.672,28.672-28.672c15.84,0,28.68,12.84,28.68,28.672
	C450.872,366.816,438.032,379.656,422.196,379.656z"/>
<g>
	<path style="fill:#FDFEFF;" d="M404.764,344.504c1.096,0,2.072,0.456,2.928,1.372c0.856,0.916,1.284,2.068,1.284,3.456
		s-0.428,2.548-1.284,3.48s-1.86,1.4-3.008,1.4s-2.072-0.46-2.772-1.38v4.636h-2.624v-12.8h2.624v1.048
		C402.72,344.904,403.668,344.504,404.764,344.504z M401.88,349.372c0,0.764,0.212,1.388,0.64,1.872
		c0.424,0.484,0.94,0.724,1.548,0.724s1.136-0.244,1.592-0.724c0.456-0.484,0.68-1.104,0.68-1.864s-0.22-1.392-0.664-1.908
		c-0.444-0.512-0.972-0.768-1.592-0.768c-0.62,0-1.14,0.252-1.564,0.76C402.092,347.972,401.88,348.608,401.88,349.372z"/>
	<path style="fill:#FDFEFF;" d="M415.888,346.968c-0.78,0-1.364,0.276-1.748,0.832c-0.384,0.552-0.576,1.284-0.576,2.196v4.076
		h-2.624v-9.408h2.624v1.24c0.336-0.384,0.76-0.712,1.268-0.98s1.024-0.408,1.548-0.42l0.016,2.468h-0.508V346.968z"/>
	<path style="fill:#FDFEFF;" d="M426.272,352.704c-1.06,1.004-2.304,1.504-3.732,1.504s-2.608-0.44-3.54-1.32s-1.4-2.06-1.4-3.54
		s0.476-2.66,1.424-3.532c0.952-0.876,2.072-1.312,3.368-1.312c1.292,0,2.392,0.392,3.296,1.172s1.356,1.856,1.356,3.216v1.4h-6.856
		c0.08,0.512,0.348,0.932,0.804,1.26s0.968,0.488,1.54,0.488c0.92,0,1.68-0.308,2.272-0.928L426.272,352.704z M423.756,347.124
		c-0.36-0.304-0.8-0.456-1.32-0.456c-0.52,0-0.992,0.156-1.424,0.472s-0.68,0.74-0.752,1.276h4.128
		C424.328,347.86,424.116,347.428,423.756,347.124z"/>
	<path style="fill:#FDFEFF;" d="M436.016,351.14c0,0.928-0.34,1.668-1.024,2.228c-0.68,0.56-1.548,0.84-2.596,0.84
		c-0.7,0-1.428-0.124-2.184-0.376c-0.756-0.252-1.44-0.62-2.048-1.112l1.156-1.644c0.98,0.756,2.024,1.136,3.132,1.136
		c0.34,0,0.608-0.068,0.804-0.2c0.196-0.136,0.296-0.312,0.296-0.532s-0.136-0.424-0.412-0.612s-0.672-0.36-1.188-0.524
		s-0.916-0.304-1.188-0.42s-0.584-0.284-0.936-0.508c-0.712-0.444-1.068-1.1-1.068-1.968c0-0.868,0.352-1.576,1.048-2.124
		c0.7-0.548,1.604-0.824,2.712-0.824s2.216,0.372,3.324,1.12l-0.98,1.748c-0.816-0.56-1.628-0.84-2.44-0.84s-1.216,0.22-1.216,0.664
		c0,0.244,0.128,0.436,0.384,0.576c0.256,0.14,0.68,0.304,1.276,0.488c0.596,0.188,1.016,0.328,1.268,0.428s0.552,0.252,0.9,0.464
		C435.688,349.552,436.016,350.212,436.016,351.14z"/>
	<path style="fill:#FDFEFF;" d="M445.108,351.14c0,0.928-0.34,1.668-1.024,2.228c-0.68,0.56-1.548,0.84-2.596,0.84
		c-0.7,0-1.428-0.124-2.184-0.376c-0.756-0.252-1.44-0.62-2.048-1.112l1.156-1.644c0.98,0.756,2.024,1.136,3.132,1.136
		c0.34,0,0.608-0.068,0.804-0.2c0.196-0.136,0.296-0.312,0.296-0.532s-0.136-0.424-0.412-0.612s-0.672-0.36-1.188-0.524
		s-0.916-0.304-1.188-0.42s-0.584-0.284-0.936-0.508c-0.712-0.444-1.068-1.1-1.068-1.968c0-0.868,0.352-1.576,1.048-2.124
		c0.7-0.548,1.604-0.824,2.712-0.824s2.216,0.372,3.324,1.12l-0.98,1.748c-0.816-0.56-1.628-0.84-2.44-0.84s-1.216,0.22-1.216,0.664
		c0,0.244,0.128,0.436,0.384,0.576c0.256,0.14,0.68,0.304,1.276,0.488c0.596,0.188,1.016,0.328,1.268,0.428s0.552,0.252,0.9,0.464
		C444.78,349.552,445.108,350.212,445.108,351.14z"/>
</g>
<g>
</g>
<g>
</g>
<g>
</g>
<g>
</g>
<g>
</g>
<g>
</g>
<g>
</g>
<g>
</g>
<g>
</g>
<g>
</g>
<g>
</g>
<g>
</g>
<g>
</g>
<g>
</g>
<g>
</g>
</svg>
