<svg enable-background="new 0 0 256 256" height="512" viewBox="0 0 256 256" width="512" xmlns="http://www.w3.org/2000/svg"><path d="m184.596 38.9h-5.581c.099.534.157 1.082.157 1.644v92.943c0 2.282-1.867 4.15-4.15 4.15h-92.546c-2.282 0-4.15-1.867-4.15-4.15v-92.943c0-.562.059-1.11.157-1.644h-5.581c-3.805 0-6.918 3.113-6.918 6.918v200.764c0 3.805 3.113 6.918 6.918 6.918h111.693c3.805 0 6.918-3.113 6.918-6.918v-200.764c.001-3.805-3.112-6.918-6.917-6.918z" fill="#5290db"/><path d="m157.698 2.971c-4.814 1.415-5.97 5.529-12.699 5.529-8.126 0-8.126-6-16.251-6s-8.125 6-16.249 6c-6.727 0-7.884-4.114-12.696-5.529-1.778-.522-3.552.861-3.552 2.714v42.565h65v-42.566c-.001-1.852-1.776-3.236-3.553-2.713z" fill="#70d6f9"/><path d="m157.698 2.971c-4.814 1.415-5.97 5.529-12.699 5.529-8.126 0-8.126-6-16.251-6s-8.125 6-16.249 6c-6.727 0-7.884-4.114-12.696-5.529-1.778-.522-3.552.861-3.552 2.714v42.565h65v-42.566c-.001-1.852-1.776-3.236-3.553-2.713z" fill="#edf4fc"/><path d="m78.369 39.705c-.026.277-.043.556-.043.839v92.943c0 2.282 1.867 4.15 4.15 4.15h92.547c2.282 0 4.15-1.867 4.15-4.15v-92.943c0-.051-.007-.1-.008-.15-.004-.231-.014-.461-.035-.688-.027-.272-.066-.54-.115-.805-.78-4.226-4.499-7.455-8.942-7.455h-8.824v16.804h-65v-16.805h-8.824c-4.444 0-8.163 3.23-8.942 7.458-.048.264-.087.531-.114.802z" fill="#29589f"/><g fill="#edf4fc"><path d="m102.945 151.5h-13.39c-2.918 0-5.305 2.387-5.305 5.305v4.39c0 2.918 2.387 5.305 5.305 5.305h13.39c2.918 0 5.305-2.387 5.305-5.305v-4.39c0-2.918-2.387-5.305-5.305-5.305z"/><path d="m135.445 151.5h-13.39c-2.918 0-5.305 2.387-5.305 5.305v4.39c0 2.918 2.387 5.305 5.305 5.305h13.39c2.918 0 5.305-2.387 5.305-5.305v-4.39c0-2.918-2.387-5.305-5.305-5.305z"/><path d="m167.945 151.5h-13.39c-2.918 0-5.305 2.387-5.305 5.305v4.39c0 2.918 2.387 5.305 5.305 5.305h13.39c2.918 0 5.305-2.387 5.305-5.305v-4.39c0-2.918-2.387-5.305-5.305-5.305z"/><path d="m102.945 175.5h-13.39c-2.918 0-5.305 2.387-5.305 5.305v4.39c0 2.918 2.387 5.305 5.305 5.305h13.39c2.918 0 5.305-2.387 5.305-5.305v-4.39c0-2.918-2.387-5.305-5.305-5.305z"/><path d="m135.445 175.5h-13.39c-2.918 0-5.305 2.387-5.305 5.305v4.39c0 2.918 2.387 5.305 5.305 5.305h13.39c2.918 0 5.305-2.387 5.305-5.305v-4.39c0-2.918-2.387-5.305-5.305-5.305z"/><path d="m167.945 175.5h-13.39c-2.918 0-5.305 2.387-5.305 5.305v4.39c0 2.918 2.387 5.305 5.305 5.305h13.39c2.918 0 5.305-2.387 5.305-5.305v-4.39c0-2.918-2.387-5.305-5.305-5.305z"/><path d="m102.945 199.5h-13.39c-2.918 0-5.305 2.387-5.305 5.305v4.39c0 2.918 2.387 5.305 5.305 5.305h13.39c2.918 0 5.305-2.387 5.305-5.305v-4.39c0-2.918-2.387-5.305-5.305-5.305z"/><path d="m135.445 199.5h-13.39c-2.918 0-5.305 2.387-5.305 5.305v4.39c0 2.918 2.387 5.305 5.305 5.305h13.39c2.918 0 5.305-2.387 5.305-5.305v-4.39c0-2.918-2.387-5.305-5.305-5.305z"/><path d="m167.945 199.5h-13.39c-2.918 0-5.305 2.387-5.305 5.305v4.39c0 2.918 2.387 5.305 5.305 5.305h13.39c2.918 0 5.305-2.387 5.305-5.305v-4.39c0-2.918-2.387-5.305-5.305-5.305z"/></g><path d="m102.945 223.5h-13.39c-2.918 0-5.305 2.387-5.305 5.305v4.39c0 2.918 2.387 5.305 5.305 5.305h13.39c2.918 0 5.305-2.387 5.305-5.305v-4.39c0-2.918-2.387-5.305-5.305-5.305z" fill="#fc657e"/><path d="m135.445 223.5h-13.39c-2.918 0-5.305 2.387-5.305 5.305v4.39c0 2.918 2.387 5.305 5.305 5.305h13.39c2.918 0 5.305-2.387 5.305-5.305v-4.39c0-2.918-2.387-5.305-5.305-5.305z" fill="#f5c84c"/><path d="m167.945 223.5h-13.39c-2.918 0-5.305 2.387-5.305 5.305v4.39c0 2.918 2.387 5.305 5.305 5.305h13.39c2.918 0 5.305-2.387 5.305-5.305v-4.39c0-2.918-2.387-5.305-5.305-5.305z" fill="#87d147"/><path d="m166.228 61.433h-74.957c-1.733 0-3.15 1.417-3.15 3.15v50.264c0 1.732 1.418 3.15 3.15 3.15h74.957c1.733 0 3.15-1.417 3.15-3.15v-50.264c.001-1.732-1.417-3.15-3.15-3.15z" fill="#f5c84c"/><path d="m207.229 78.346h-15.715v137.308h15.715c3.311 0 6.021-2.709 6.021-6.021v-125.266c0-3.311-2.709-6.021-6.021-6.021z" fill="#29589f"/><path d="m51.146 86.856c-1.849-.334-3.355 1.047-3.355 2.749 0 1.28.901 2.493 2.255 2.749 1.806.336 3.354-1.042 3.354-2.749.001-1.352-.977-2.508-2.254-2.749z" fill="#87d147"/><path d="m199.146 16.856c-1.849-.334-3.355 1.047-3.355 2.749 0 1.635 1.434 3.086 3.355 2.749 1.249-.236 2.255-1.377 2.255-2.749 0-1.352-.978-2.508-2.255-2.749z" fill="#f5c84c"/><path d="m222.71 45.927c-3.995-.744-7.144-3.829-7.904-7.743-.038-.197-.313-.197-.351 0-.76 3.914-3.908 6.999-7.904 7.743-.201.037-.201.306 0 .344 3.995.744 7.144 3.829 7.904 7.743.038.197.313.197.351 0 .76-3.914 3.908-6.999 7.904-7.743.2-.038.2-.307 0-.344z" fill="#3caadc"/><path d="m45.693 186.545h-2.07v-2.07c0-1.549-1.256-2.805-2.805-2.805s-2.805 1.256-2.805 2.805v2.07h-2.069c-1.549 0-2.805 1.256-2.805 2.805s1.256 2.805 2.805 2.805h2.069v2.07c0 1.549 1.256 2.805 2.805 2.805s2.805-1.256 2.805-2.805v-2.07h2.07c1.549 0 2.805-1.256 2.805-2.805-.001-1.549-1.256-2.805-2.805-2.805z" fill="#f5c84c"/><path d="m48.124 223.224c1.854.335 3.355-1.052 3.355-2.749 0-1.549-1.249-2.805-2.805-2.805-1.526 0-2.805 1.258-2.805 2.805 0 1.335.96 2.505 2.255 2.749z" fill="#ef4460"/><path d="m184.597 256h-111.694c-5.193 0-9.418-4.225-9.418-9.418v-200.764c0-5.193 4.225-9.418 9.418-9.418h5.581c.742 0 1.447.33 1.922.901.475.57.672 1.323.536 2.054-.077.42-.115.809-.115 1.188v92.942c0 .895.755 1.649 1.649 1.649h92.547c.895 0 1.649-.755 1.649-1.649v-92.941c0-.38-.038-.769-.115-1.188-.136-.73.062-1.483.536-2.054.475-.571 1.18-.901 1.922-.901h5.581c5.193 0 9.418 4.225 9.418 9.418v200.764c.001 5.192-4.224 9.417-9.417 9.417zm-111.694-214.6c-2.437 0-4.418 1.981-4.418 4.418v200.764c0 2.437 1.981 4.418 4.418 4.418h111.693c2.437 0 4.418-1.981 4.418-4.418v-200.764c0-2.437-1.981-4.418-4.418-4.418h-2.924v92.086c0 3.666-2.983 6.649-6.649 6.649h-92.546c-3.666 0-6.649-2.983-6.649-6.649v-92.086z"/><path d="m164.046 50.75h-70.592c-1.381 0-2.5-1.119-2.5-2.5s1.119-2.5 2.5-2.5h70.592c1.381 0 2.5 1.119 2.5 2.5s-1.119 2.5-2.5 2.5z"/><path d="m161.25 50.75h-65c-1.381 0-2.5-1.119-2.5-2.5v-42.565c0-1.672.801-3.269 2.142-4.272 1.34-1.002 3.02-1.309 4.615-.84 2.331.686 3.937 1.871 5.353 2.917 1.899 1.402 3.399 2.51 6.638 2.51s4.74-1.108 6.64-2.511c2.105-1.554 4.724-3.489 9.609-3.489 4.886 0 7.506 1.935 9.611 3.489 1.899 1.402 3.4 2.511 6.641 2.511 3.239 0 4.739-1.108 6.64-2.511 1.417-1.046 3.022-2.232 5.354-2.917 1.595-.469 3.276-.162 4.615.84 1.341 1.004 2.142 2.601 2.142 4.272v42.566c0 1.381-1.119 2.5-2.5 2.5zm-62.5-5h60v-40.065c0-.145-.086-.23-.138-.269-.102-.076-.181-.056-.209-.047 0 0 0 0-.001 0-1.483.436-2.554 1.227-3.794 2.143-2.104 1.553-4.724 3.488-9.609 3.488-4.886 0-7.506-1.935-9.611-3.489-1.9-1.403-3.401-2.511-6.641-2.511-3.239 0-4.739 1.108-6.639 2.511-2.105 1.555-4.725 3.489-9.61 3.489s-7.505-1.935-9.609-3.489c-1.239-.915-2.31-1.706-3.792-2.142-.03-.009-.107-.029-.209.047-.052.038-.138.124-.138.269zm58.948-42.779h.01z"/><path d="m161.25 50.75h-65c-1.381 0-2.5-1.119-2.5-2.5v-42.565c0-1.672.801-3.269 2.142-4.272 1.34-1.002 3.02-1.309 4.615-.84 2.331.686 3.937 1.871 5.353 2.917 1.899 1.402 3.399 2.51 6.638 2.51s4.74-1.108 6.64-2.511c2.105-1.554 4.724-3.489 9.609-3.489 4.886 0 7.506 1.935 9.611 3.489 1.899 1.402 3.4 2.511 6.641 2.511 3.239 0 4.739-1.108 6.64-2.511 1.417-1.046 3.022-2.232 5.354-2.917 1.595-.469 3.276-.162 4.615.84 1.341 1.004 2.142 2.601 2.142 4.272v42.566c0 1.381-1.119 2.5-2.5 2.5zm-62.5-5h60v-40.065c0-.145-.086-.23-.138-.269-.102-.076-.181-.056-.209-.047 0 0 0 0-.001 0-1.483.436-2.554 1.227-3.794 2.143-2.104 1.553-4.724 3.488-9.609 3.488-4.886 0-7.506-1.935-9.611-3.489-1.9-1.403-3.401-2.511-6.641-2.511-3.239 0-4.739 1.108-6.639 2.511-2.105 1.555-4.725 3.489-9.61 3.489s-7.505-1.935-9.609-3.489c-1.239-.915-2.31-1.706-3.792-2.142-.03-.009-.107-.029-.209.047-.052.038-.138.124-.138.269zm58.948-42.779h.01z"/><path d="m134.25 27.167h-24c-1.381 0-2.5-1.119-2.5-2.5s1.119-2.5 2.5-2.5h24c1.381 0 2.5 1.119 2.5 2.5s-1.119 2.5-2.5 2.5z"/><path d="m148.25 27.167h-3c-1.381 0-2.5-1.119-2.5-2.5s1.119-2.5 2.5-2.5h3c1.381 0 2.5 1.119 2.5 2.5s-1.119 2.5-2.5 2.5z"/><path d="m134.25 37.833h-24c-1.381 0-2.5-1.119-2.5-2.5s1.119-2.5 2.5-2.5h24c1.381 0 2.5 1.119 2.5 2.5s-1.119 2.5-2.5 2.5z"/><path d="m148.25 37.833h-3c-1.381 0-2.5-1.119-2.5-2.5s1.119-2.5 2.5-2.5h3c1.381 0 2.5 1.119 2.5 2.5s-1.119 2.5-2.5 2.5z"/><path d="m140.25 130h-24c-1.381 0-2.5-1.119-2.5-2.5s1.119-2.5 2.5-2.5h24c1.381 0 2.5 1.119 2.5 2.5s-1.119 2.5-2.5 2.5z"/><path d="m207.229 218.154h-15.715c-1.381 0-2.5-1.119-2.5-2.5v-137.308c0-1.381 1.119-2.5 2.5-2.5h15.715c4.698 0 8.521 3.822 8.521 8.521v125.266c0 4.699-3.822 8.521-8.521 8.521zm-13.214-5h13.215c1.941 0 3.521-1.58 3.521-3.521v-125.266c0-1.941-1.579-3.521-3.521-3.521h-13.215z"/><path d="m158.25 76h-3c-1.381 0-2.5-1.119-2.5-2.5s1.119-2.5 2.5-2.5h3c1.381 0 2.5 1.119 2.5 2.5s-1.119 2.5-2.5 2.5z"/><path d="m158.25 91.5h-3c-1.381 0-2.5-1.119-2.5-2.5s1.119-2.5 2.5-2.5h3c1.381 0 2.5 1.119 2.5 2.5s-1.119 2.5-2.5 2.5z"/><path d="m158.25 107h-3c-1.381 0-2.5-1.119-2.5-2.5s1.119-2.5 2.5-2.5h3c1.381 0 2.5 1.119 2.5 2.5s-1.119 2.5-2.5 2.5z"/><path d="m102.25 76h-3c-1.381 0-2.5-1.119-2.5-2.5s1.119-2.5 2.5-2.5h3c1.381 0 2.5 1.119 2.5 2.5s-1.119 2.5-2.5 2.5z"/><path d="m102.25 91.5h-3c-1.381 0-2.5-1.119-2.5-2.5s1.119-2.5 2.5-2.5h3c1.381 0 2.5 1.119 2.5 2.5s-1.119 2.5-2.5 2.5z"/><path d="m102.25 107h-3c-1.381 0-2.5-1.119-2.5-2.5s1.119-2.5 2.5-2.5h3c1.381 0 2.5 1.119 2.5 2.5s-1.119 2.5-2.5 2.5z"/><path d="m175.023 140.136h-92.546c-3.666 0-6.649-2.982-6.649-6.649v-92.943c0-.36.021-.716.053-1.067 0-.008.001-.015.002-.022.034-.337.082-.67.142-.998 1.017-5.514 5.812-9.511 11.402-9.511h8.824c1.381 0 2.5 1.119 2.5 2.5v14.304h60v-14.305c0-1.381 1.119-2.5 2.5-2.5h8.824c5.589 0 10.384 3.996 11.399 9.501.062.332.11.668.145 1.008.029.317.043.611.047.908.004.004.008.092.008.182v92.942c-.001 3.667-2.985 6.65-6.651 6.65zm-94.166-100.191c-.018.197-.03.396-.03.599v92.942c0 .895.755 1.649 1.649 1.649h92.547c.895 0 1.649-.755 1.649-1.649v-92.88c-.004-.058-.006-.11-.008-.165-.002-.183-.01-.348-.024-.512-.018-.177-.047-.378-.084-.576-.578-3.134-3.305-5.408-6.482-5.408h-6.324v14.305c0 1.381-1.119 2.5-2.5 2.5h-65c-1.381 0-2.5-1.119-2.5-2.5v-14.305h-6.324c-3.179 0-5.906 2.275-6.483 5.41-.036.19-.065.388-.086.59z"/><path d="m202.25 218c-1.381 0-2.5-1.119-2.5-2.5v-137c0-1.381 1.119-2.5 2.5-2.5s2.5 1.119 2.5 2.5v137c0 1.381-1.119 2.5-2.5 2.5z"/><path d="m102.945 169h-13.39c-4.304 0-7.805-3.501-7.805-7.805v-4.391c0-4.304 3.501-7.805 7.805-7.805h13.391c4.304 0 7.805 3.501 7.805 7.805v4.391c-.001 4.304-3.502 7.805-7.806 7.805zm-13.39-15c-1.547 0-2.805 1.258-2.805 2.805v4.391c0 1.547 1.258 2.805 2.805 2.805h13.391c1.547 0 2.805-1.258 2.805-2.805v-4.391c0-1.547-1.258-2.805-2.805-2.805z"/><path d="m135.445 169h-13.391c-4.304 0-7.805-3.501-7.805-7.805v-4.391c0-4.304 3.501-7.805 7.805-7.805h13.391c4.304 0 7.805 3.501 7.805 7.805v4.391c0 4.304-3.501 7.805-7.805 7.805zm-13.39-15c-1.547 0-2.805 1.258-2.805 2.805v4.391c0 1.547 1.258 2.805 2.805 2.805h13.391c1.547 0 2.805-1.258 2.805-2.805v-4.391c0-1.547-1.258-2.805-2.805-2.805z"/><path d="m167.945 169h-13.391c-4.304 0-7.805-3.501-7.805-7.805v-4.391c0-4.304 3.501-7.805 7.805-7.805h13.391c4.304 0 7.805 3.501 7.805 7.805v4.391c0 4.304-3.501 7.805-7.805 7.805zm-13.39-15c-1.547 0-2.805 1.258-2.805 2.805v4.391c0 1.547 1.258 2.805 2.805 2.805h13.391c1.547 0 2.805-1.258 2.805-2.805v-4.391c0-1.547-1.258-2.805-2.805-2.805z"/><path d="m102.945 193h-13.39c-4.304 0-7.805-3.501-7.805-7.805v-4.391c0-4.304 3.501-7.805 7.805-7.805h13.391c4.304 0 7.805 3.501 7.805 7.805v4.391c-.001 4.304-3.502 7.805-7.806 7.805zm-13.39-15c-1.547 0-2.805 1.258-2.805 2.805v4.391c0 1.547 1.258 2.805 2.805 2.805h13.391c1.547 0 2.805-1.258 2.805-2.805v-4.391c0-1.547-1.258-2.805-2.805-2.805z"/><path d="m135.445 193h-13.391c-4.304 0-7.805-3.501-7.805-7.805v-4.391c0-4.304 3.501-7.805 7.805-7.805h13.391c4.304 0 7.805 3.501 7.805 7.805v4.391c0 4.304-3.501 7.805-7.805 7.805zm-13.39-15c-1.547 0-2.805 1.258-2.805 2.805v4.391c0 1.547 1.258 2.805 2.805 2.805h13.391c1.547 0 2.805-1.258 2.805-2.805v-4.391c0-1.547-1.258-2.805-2.805-2.805z"/><path d="m167.945 193h-13.391c-4.304 0-7.805-3.501-7.805-7.805v-4.391c0-4.304 3.501-7.805 7.805-7.805h13.391c4.304 0 7.805 3.501 7.805 7.805v4.391c0 4.304-3.501 7.805-7.805 7.805zm-13.39-15c-1.547 0-2.805 1.258-2.805 2.805v4.391c0 1.547 1.258 2.805 2.805 2.805h13.391c1.547 0 2.805-1.258 2.805-2.805v-4.391c0-1.547-1.258-2.805-2.805-2.805z"/><path d="m102.945 217h-13.39c-4.304 0-7.805-3.501-7.805-7.805v-4.391c0-4.304 3.501-7.805 7.805-7.805h13.391c4.304 0 7.805 3.501 7.805 7.805v4.391c-.001 4.304-3.502 7.805-7.806 7.805zm-13.39-15c-1.547 0-2.805 1.258-2.805 2.805v4.391c0 1.547 1.258 2.805 2.805 2.805h13.391c1.547 0 2.805-1.258 2.805-2.805v-4.391c0-1.547-1.258-2.805-2.805-2.805z"/><path d="m135.445 217h-13.391c-4.304 0-7.805-3.501-7.805-7.805v-4.391c0-4.304 3.501-7.805 7.805-7.805h13.391c4.304 0 7.805 3.501 7.805 7.805v4.391c0 4.304-3.501 7.805-7.805 7.805zm-13.39-15c-1.547 0-2.805 1.258-2.805 2.805v4.391c0 1.547 1.258 2.805 2.805 2.805h13.391c1.547 0 2.805-1.258 2.805-2.805v-4.391c0-1.547-1.258-2.805-2.805-2.805z"/><path d="m167.945 217h-13.391c-4.304 0-7.805-3.501-7.805-7.805v-4.391c0-4.304 3.501-7.805 7.805-7.805h13.391c4.304 0 7.805 3.501 7.805 7.805v4.391c0 4.304-3.501 7.805-7.805 7.805zm-13.39-15c-1.547 0-2.805 1.258-2.805 2.805v4.391c0 1.547 1.258 2.805 2.805 2.805h13.391c1.547 0 2.805-1.258 2.805-2.805v-4.391c0-1.547-1.258-2.805-2.805-2.805z"/><path d="m102.945 241h-13.39c-4.304 0-7.805-3.501-7.805-7.805v-4.391c0-4.304 3.501-7.805 7.805-7.805h13.391c4.304 0 7.805 3.501 7.805 7.805v4.391c-.001 4.304-3.502 7.805-7.806 7.805zm-13.39-15c-1.547 0-2.805 1.258-2.805 2.805v4.391c0 1.547 1.258 2.805 2.805 2.805h13.391c1.547 0 2.805-1.258 2.805-2.805v-4.391c0-1.547-1.258-2.805-2.805-2.805z"/><path d="m135.445 241h-13.391c-4.304 0-7.805-3.501-7.805-7.805v-4.391c0-4.304 3.501-7.805 7.805-7.805h13.391c4.304 0 7.805 3.501 7.805 7.805v4.391c0 4.304-3.501 7.805-7.805 7.805zm-13.39-15c-1.547 0-2.805 1.258-2.805 2.805v4.391c0 1.547 1.258 2.805 2.805 2.805h13.391c1.547 0 2.805-1.258 2.805-2.805v-4.391c0-1.547-1.258-2.805-2.805-2.805z"/><path d="m167.945 241h-13.391c-4.304 0-7.805-3.501-7.805-7.805v-4.391c0-4.304 3.501-7.805 7.805-7.805h13.391c4.304 0 7.805 3.501 7.805 7.805v4.391c0 4.304-3.501 7.805-7.805 7.805zm-13.39-15c-1.547 0-2.805 1.258-2.805 2.805v4.391c0 1.547 1.258 2.805 2.805 2.805h13.391c1.547 0 2.805-1.258 2.805-2.805v-4.391c0-1.547-1.258-2.805-2.805-2.805z"/><path d="m166.229 120.497h-74.958c-3.115 0-5.65-2.534-5.65-5.649v-50.265c0-3.115 2.535-5.649 5.65-5.649h74.957c3.115 0 5.65 2.534 5.65 5.649v50.264c.001 3.115-2.534 5.65-5.649 5.65zm-74.958-56.563c-.353 0-.65.298-.65.649v50.265c0 .352.298.649.65.649h74.957c.353 0 .65-.298.65-.65v-50.264c0-.352-.298-.649-.65-.649z"/></svg>