<svg height="512" viewBox="0 0 64 64" width="512" xmlns="http://www.w3.org/2000/svg"><g id="Fill_Outline" data-name="Fill Outline"><g id="Color"><g><rect fill="#93999a" height="58" rx="4" width="38" x="3" y="3"/><path d="m36 49a22 22 0 0 1 -22-22v-24h-7a4 4 0 0 0 -4 4v50a4 4 0 0 0 4 4h30a4 4 0 0 0 4-4v-8z" fill="#656b76"/><path d="m7 11h30v41h-30z" fill="#aae1f9"/><path d="m18 3a4 4 0 0 0 4 4h13a4 4 0 0 1 4 4v24a2 2 0 0 0 2 2v-30a4 4 0 0 0 -4-4z" fill="#d0d8da"/><path d="m37 49h-1a22 22 0 0 1 -22-22v-16h-7v41h30z" fill="#57b7eb"/><g><path d="m13 16h4v32h-4z" fill="#656b76"/><path d="m13 20h36v24h-36z" fill="#f9e109"/><path d="m13 24h36v6h-36z" fill="#93999a"/><circle cx="21" cy="37" fill="#f9e109" r="3"/><circle cx="25" cy="37" fill="#f9e109" r="3"/><path d="m19 25v-5h-6v24h36v-5h-16a14 14 0 0 1 -14-14z" fill="#fcbc04"/><path d="m19 25v-1h-6v6h6.936a13.931 13.931 0 0 1 -.936-5z" fill="#656b76"/></g><circle cx="25" cy="37" fill="#57b7eb" r="3"/><path d="m22 37a2.993 2.993 0 0 0 5.817 1 14 14 0 0 1 -4.817-3.217 2.979 2.979 0 0 0 -1 2.217z" fill="#4891d3"/><circle cx="21" cy="37" fill="#f8664f" r="3"/></g></g><g id="Outline_copy" data-name="Outline copy"><g fill="#434951"><path d="m41 47a1 1 0 0 0 -1 1v9a3 3 0 0 1 -3 3h-30a3 3 0 0 1 -3-3v-9a1 1 0 0 0 -2 0v9a5.006 5.006 0 0 0 5 5h30a5.006 5.006 0 0 0 5-5v-9a1 1 0 0 0 -1-1z"/><circle cx="7" cy="7" r="1"/><circle cx="11" cy="7" r="1"/><path d="m26 57a1 1 0 0 0 0-2h-8a1 1 0 0 0 0 2z"/><path d="m61 19h-19v-12a5.006 5.006 0 0 0 -5-5h-30a5.006 5.006 0 0 0 -5 5v37a1 1 0 0 0 2 0v-37a3 3 0 0 1 3-3h30a3 3 0 0 1 3 3v12h-5a1 1 0 0 0 0 2h13v2h-31a1 1 0 0 0 0 2h31v18h-34v-12h31a1 1 0 0 0 0-2h-31v-8h17a1 1 0 0 0 0-2h-13v-3a1 1 0 0 0 -1-1h-4a1 1 0 0 0 -1 1v32a1 1 0 0 0 1 1h4a1 1 0 0 0 0-2h-3v-2h22v6h-28v-39h28v4a1 1 0 0 0 2 0v-5a1 1 0 0 0 -1-1h-30a1 1 0 0 0 -1 1v41a1 1 0 0 0 1 1h30a1 1 0 0 0 1-1v-7h11a1 1 0 0 0 1-1v-5h3a1 1 0 0 0 0-2h-3v-2h6a1 1 0 0 0 0-2h-6v-2h9a1 1 0 0 0 0-2h-9v-4h6a1 1 0 0 0 0-2h-6v-2h11a1 1 0 0 0 0-2zm-45-2v2h-2v-2z"/><path d="m46 35a1 1 0 0 0 -1-1h-8a1 1 0 0 0 0 2h8a1 1 0 0 0 1-1z"/><path d="m37 38a1 1 0 0 0 0 2h5a1 1 0 0 0 0-2z"/><path d="m21 15a1 1 0 0 0 0 2h10a1 1 0 0 0 0-2z"/><path d="m26 49a1 1 0 0 0 0-2h-5a1 1 0 0 0 0 2z"/><path d="m33 49a1 1 0 0 0 0-2h-3a1 1 0 0 0 0 2z"/><path d="m21 39a1 1 0 0 0 0 2 3.947 3.947 0 0 0 2-.555 3.949 3.949 0 0 0 2 .555 4 4 0 0 0 0-8 3.949 3.949 0 0 0 -2 .555 3.947 3.947 0 0 0 -2-.555 4 4 0 0 0 -4 4 1 1 0 0 0 2 0 2 2 0 1 1 2 2zm6-2a2 2 0 0 1 -2 2 1.875 1.875 0 0 1 -.515-.076 3.851 3.851 0 0 0 0-3.848 1.875 1.875 0 0 1 .515-.076 2 2 0 0 1 2 2z"/></g></g></g></svg>