<svg height="512" viewBox="0 0 64 64" width="512" xmlns="http://www.w3.org/2000/svg"><g id="Flat"><g id="Color_copy" data-name="Color copy"><g><rect fill="#93999a" height="58" rx="4" width="38" x="3" y="3"/><path d="m36 49a22 22 0 0 1 -22-22v-24h-7a4 4 0 0 0 -4 4v50a4 4 0 0 0 4 4h30a4 4 0 0 0 4-4v-8z" fill="#656b76"/><path d="m7 11h30v41h-30z" fill="#aae1f9"/><path d="m18 3a4 4 0 0 0 4 4h13a4 4 0 0 1 4 4v24a2 2 0 0 0 2 2v-30a4 4 0 0 0 -4-4z" fill="#d0d8da"/><path d="m37 49h-1a22 22 0 0 1 -22-22v-16h-7v41h30z" fill="#57b7eb"/><g><path d="m60 22h-11a1 1 0 0 1 0-2h11a1 1 0 0 1 0 2z" fill="#f9e109"/><path d="m55 26h-6a1 1 0 0 1 0-2h6a1 1 0 0 1 0 2z" fill="#93999a"/><path d="m58 30h-9a1 1 0 0 1 0-2h9a1 1 0 0 1 0 2z" fill="#93999a"/><path d="m55 34h-6a1 1 0 0 1 0-2h6a1 1 0 0 1 0 2z" fill="#f9e109"/><path d="m52 39h-3a1 1 0 0 1 0-2h3a1 1 0 0 1 0 2z" fill="#f9e109"/><path d="m13 16h4v32h-4z" fill="#656b76"/><path d="m13 20h36v24h-36z" fill="#f9e109"/><path d="m13 24h36v6h-36z" fill="#93999a"/><path d="m19 25v-5h-6v24h36v-5h-16a14 14 0 0 1 -14-14z" fill="#fcbc04"/><path d="m19 25v-1h-6v6h6.936a13.931 13.931 0 0 1 -.936-5z" fill="#656b76"/><circle cx="25" cy="37" fill="#57b7eb" r="3"/><path d="m22 37a2.993 2.993 0 0 0 5.817 1 14 14 0 0 1 -4.817-3.217 2.979 2.979 0 0 0 -1 2.217z" fill="#4891d3"/><circle cx="21" cy="37" fill="#f8664f" r="3"/><g fill="#57b7eb"><path d="m45 35h-8a1 1 0 0 1 0-2h8a1 1 0 0 1 0 2z"/><path d="m42 39h-5a1 1 0 0 1 0-2h5a1 1 0 0 1 0 2z"/></g></g><g fill="#4891d3"><circle cx="7" cy="7" r="1"/><circle cx="11" cy="7" r="1"/><path d="m26 57h-8a1 1 0 0 1 0-2h8a1 1 0 0 1 0 2z"/></g><path d="m31 17h-10a1 1 0 0 1 0-2h10a1 1 0 0 1 0 2z" fill="#f9e109"/><path d="m26 49h-5a1 1 0 0 1 0-2h5a1 1 0 0 1 0 2z" fill="#fcbc04"/><path d="m33 49h-3a1 1 0 0 1 0-2h3a1 1 0 0 1 0 2z" fill="#f9e109"/><path d="m30 49h3a.968.968 0 0 0 .49-.147 21.873 21.873 0 0 1 -4.463-.988.9.9 0 0 0 .973 1.135z" fill="#fcbc04"/></g></g></g></svg>