<svg id="Layer_1" height="512" viewBox="0 0 128 128" width="512" xmlns="http://www.w3.org/2000/svg" data-name="Layer 1"><rect fill="#547982" height="102" rx="4.128" width="60.84" x="18.25" y="13"/><path d="m79.09 30.1h26.42a4.241 4.241 0 0 1 4.241 4.241v48.725a4.241 4.241 0 0 1 -4.241 4.241h-26.42a0 0 0 0 1 0 0v-57.207a0 0 0 0 1 0 0z" fill="#6ae1db"/><path d="m25.968 21.5h45.403v20.431h-45.403z" fill="#6ae1db"/><path d="m55.253 51.465h16.118v8.399h-16.118z" fill="#e43c53"/><path d="m55.253 66.75h16.118v8.399h-16.118z" fill="#69b921"/><path d="m55.253 82.034h16.118v23.958h-16.118z" fill="#fbbe2c"/><g fill="#ececf1"><path d="m25.628 51.465h8.4v8.4h-8.4z"/><path d="m40.27 51.465h8.399v8.4h-8.399z"/><path d="m25.628 66.75h8.4v8.399h-8.4z"/><path d="m40.27 66.75h8.399v8.399h-8.399z"/><path d="m25.628 82.034h8.4v8.399h-8.4z"/><path d="m40.27 82.034h8.399v8.399h-8.399z"/><path d="m25.628 97.592h8.4v8.399h-8.4z"/><path d="m40.27 97.592h8.399v8.399h-8.399z"/></g><path d="m93.257 30.099h6.945v57.207h-6.945z" fill="#547982"/></svg>