<svg height="512" viewBox="0 0 58 58" width="512" xmlns="http://www.w3.org/2000/svg"><g id="049---Online-Transaction" fill="none"><path id="Shape" d="m56 11v39h-54v-39c0-2.209139 1.790861-4 4-4h46c2.209139 0 4 1.790861 4 4z" fill="#547580"/><path id="Shape" d="m51.2 11c-6.05.2-44.48 2.53-45.2 32.16-.01050749-.0528158-.01050749-.1071842 0-.16v-31c0-.5522847.44771525-1 1-1h44z" fill="#67b9cc"/><path id="Shape" d="m52 12v31c0 .5522847-.4477153 1-1 1h-44c-.2430724-.0003498-.47769576-.0892223-.66-.25-.17111388-.1406225-.29070168-.3340733-.34-.55.72-29.67 39.15-32 45.2-32.2.1692248.0395977.326787.1183788.46.23.2210959.1941467.3454678.4758122.34.77z" fill="#2fa8cc"/><path id="Shape" d="m19 0h20c1.6568542 0 3 1.34314575 3 3v31h-26v-31c0-1.65685425 1.3431458-3 3-3z" fill="#f29c1f"/><rect id="Rectangle-path" fill="#f3d55b" height="8" rx="1" width="8" x="29" y="5"/><path id="Shape" d="m36 14h-6c-1.1045695 0-2-.8954305-2-2v-6c0-1.1045695.8954305-2 2-2h6c1.1045695 0 2 .8954305 2 2v6c0 1.1045695-.8954305 2-2 2zm-6-8v6h6v-6z" fill="#e4c05c"/><path id="Shape" d="m33 14c-.5522847 0-1-.4477153-1-1v-8c0-.55228475.4477153-1 1-1s1 .44771525 1 1v8c0 .5522847-.4477153 1-1 1z" fill="#e4c05c"/><path id="Shape" d="m35.64 28c1.2508422-1.0988868 1.6901776-2.8576825 1.1030101-4.4156918-.5871674-1.5580093-2.0780301-2.5893706-3.7430101-2.5893706s-3.1558427 1.0313613-3.7430101 2.5893706c-.5871675 1.5580093-.1478321 3.316805 1.1030101 4.4156918z" fill="#e64c3c"/><path id="Shape" d="m35.64 34c1.2508422-1.0988868 1.6901776-2.8576825 1.1030101-4.4156918-.5871674-1.5580093-2.0780301-2.5893706-3.7430101-2.5893706s-3.1558427 1.0313613-3.7430101 2.5893706c-.5871675 1.5580093-.1478321 3.316805 1.1030101 4.4156918z" fill="#4482c3"/><g fill="#fac176"><path id="Shape" d="m24 9c-.5522847 0-1-.44771525-1-1v-3c0-.55228475.4477153-1 1-1s1 .44771525 1 1v3c0 .55228475-.4477153 1-1 1z"/><path id="Shape" d="m24 16c-.5522847 0-1-.4477153-1-1v-3c0-.5522847.4477153-1 1-1s1 .4477153 1 1v3c0 .5522847-.4477153 1-1 1z"/><path id="Shape" d="m20 22c-.5522847 0-1-.4477153-1-1v-16c0-.55228475.4477153-1 1-1s1 .44771525 1 1v16c0 .5522847-.4477153 1-1 1z"/></g><path id="Shape" d="m25 39h-14c-.5522847 0-1-.4477153-1-1s.4477153-1 1-1h14c.5522847 0 1 .4477153 1 1s-.4477153 1-1 1z" fill="#b0d3f0"/><path id="Shape" d="m47 39h-14c-.5522847 0-1-.4477153-1-1s.4477153-1 1-1h14c.5522847 0 1 .4477153 1 1s-.4477153 1-1 1z" fill="#b0d3f0"/><path id="Shape" d="m58 49v3c0 3.3137085-2.6862915 6-6 6h-46c-3.3137085 0-6-2.6862915-6-6v-3c0-.5522847.44771525-1 1-1h56c.5522847 0 1 .4477153 1 1z" fill="#3f5c6c"/><path id="Shape" d="m19 48h20v2c0 1.6568542-1.3431458 3-3 3h-14c-1.6568542 0-3-1.3431458-3-3z" fill="#35495e"/><path id="Shape" d="m5 53c-.55228475 0-1-.4477153-1-1s.44771525-1 1-1 1 .4477153 1 1-.44771525 1-1 1z" fill="#4fba6f"/><path id="Shape" d="m8 53c-.55228475 0-1-.4477153-1-1s.44771525-1 1-1 1 .4477153 1 1-.44771525 1-1 1z" fill="#e64c3c"/><path id="Shape" d="m14 53h-3c-.5522847 0-1-.4477153-1-1s.4477153-1 1-1h3c.5522847 0 1 .4477153 1 1s-.4477153 1-1 1z" fill="#35495e"/><path id="Shape" d="m45 35h-32c-.5522847 0-1-.4477153-1-1s.4477153-1 1-1h32c.5522847 0 1 .4477153 1 1s-.4477153 1-1 1z" fill="#2980ba"/></g></svg>